<svg fill="none" height="26" viewBox="0 0 141 26" width="141" xmlns="http://www.w3.org/2000/svg"><g fill="#fff"><path d="m4.80214 16.7092c2.03 0 3.29-1.092 3.29-2.87 0-1.344-.742-2.142-1.708-2.492.63-.28 1.26-1.008 1.26-1.91802 0-1.61-1.19-2.52-3.024-2.52h-3.625999v9.80002zm-2.366-8.58202h2.1c1.106 0 1.694.476 1.694 1.372 0 .91002-.588 1.37202-1.68 1.37202h-2.114zm0 4.01802h2.17c1.372 0 2.044.574 2.044 1.638s-.672 1.638-2.044 1.638h-2.17z"/><path d="m14.4954 9.65318-1.862 5.29202-1.848-5.29202h-1.40001l2.61801 7.12602-.952 2.786h1.302l1.064-3.108 2.478-6.80402z"/><path clip-rule="evenodd" d="m67.7777 6.89987c2.6249.00295 3.9558.05536 5.0637.46652 2.7932 1.02908 3.1858 3.14091 3.1858 4.58291 0 1.7718-.6065 3.6523-2.8907 4.3494l3.357 6.114h2.0402v2.5335c-.809.051-1.32.0999-1.8581.1401-.537.0459-.9668.0695-1.2883.0695-.6601 0-1.1538-.1048-1.4802-.3182-.3309-.207-.6252-.5698-.8814-1.0935l-3.5259-6.8166h-1.9132v4.0098h-3.6689v-11.28703h-1.5565v-2.75055zm-33.3906-.06334c.8262 0 1.3879.16716 1.6883.49947.3001.33503.4413.88319.4413 1.64602v9.14918h1.6356v2.4879s-1.9845.2895-3.1657.2895c-.6356 0-1.1084-.098-1.4262-.2895-.3158-.1888-.5275-.4944-.6339-.9133-.581.4576-2.0698 1.4961-3.8888 1.4961-1.1827 0-2.4652-.3586-3.4245-1.3248-.365-.3709-.977-1.3984-.977-3.4077v-6.85783h-1.6362v-2.51642c.5114-.0789 1.0733-.13856 1.6919-.18795.6114-.04956 1.1055-.07067 1.476-.07067.827 0 1.3899.16716 1.6913.49947.2975.33503.4469.88319.4469 1.64602v6.94398c0 .6297.1039 1.1426.4223 1.4002.7981.6505 2.4596.4073 2.8908.3577.4324-.0456.8427-.1158 1.229-.2131v-7.85923h-1.6308v-2.51642c.5131-.0789 1.075-.13856 1.6904-.18795.6156-.04956 1.1104-.07067 1.4793-.07067zm23.6413 0c.8464 0 1.4134.16716 1.715.49947.3017.33503.4483.88394.4483 1.64602v11.95608h-3.6689v-11.32576h-1.7415v-2.49126c.2604-.03766.5434-.06952.846-.10032 0 0 1.637-.18423 2.4011-.18423zm-9.5407-.28687c2.9808 0 3.9853 2.38373 3.9853 4.72304v6.8585h1.5996v2.4879s-1.4122.1864-1.6912.2176c-.2812.026-.5558.0459-.8168.0576-.2399.0066-.4327.01-.5977.0143h-.062c-.0373 0-.0703-.0058-.1078-.0058-.0669-.0019-.1321-.0025-.1976-.0085-.2522-.0132-.474-.0467-.6653-.0973-.0178-.0034-.0292-.0075-.0444-.0126-.1553-.0412-.4546-.1585-.6385-.3651-.3023-.3394-.4458-.8972-.4458-1.6619v-6.9416c0-.6471-.1426-1.1171-.4256-1.4023-.1754-.1714-.4045-.2917-.6839-.3428-1.6539-.30701-3.1157.1058-3.486.2024v10.5173h-3.6715v-11.17883h-1.8188v-2.49102c.5102-.09437 2.246-.28402 3.2993-.28402.6515 0 1.1406.09503 1.4679.28402.3237.19137.5477.48905.6694.88942 1.5407-1.36033 3.5577-1.46031 4.3314-1.46031zm21.1241 3.0234h-2.0252v4.74074h2.1692c1.8923 0 2.6092-1.3021 2.6092-2.4158 0-1.0624-.2903-2.32494-2.7532-2.32494zm-11.8209-9.444642c.6117 0 1.0788.145189 1.3832.428848.2927.280511.4434.762304.4434 1.437134v.38173c0 .67571-.1469 1.15165-.4434 1.42202-.3044.27427-.7693.41463-1.3832.41463h-.193c-.6267 0-1.0986-.13747-1.3909-.4128-.2889-.26954-.4373-.74901-.4373-1.42385v-.38173c0-.67152.1484-1.156623.4373-1.437134.2983-.284614.7664-.428848 1.3909-.428848z" fill-rule="evenodd"/><path d="m82.2314 12.341h3.2792v-.7153h-2.5127v-4.72708h-.7665zm7.614 0h.7957l-2.0262-5.44238h-.7075l-2.0264 5.44238h.7886l.4935-1.3839h2.1886zm-2.4242-2.0914.8399-2.34025.84 2.34025zm7.8154 2.1536c1.1862 0 1.9821-.723 1.9821-1.967v-3.53758h-.7369v3.56088c0 .7775-.5009 1.2207-1.2452 1.2207-.7369 0-1.238-.4432-1.238-1.2207v-3.56088h-.7369v3.53758c0 1.244.7959 1.967 1.9749 1.967zm3.1558-.0622h.7665v-4.18285l2.4901 4.18285h.848v-5.44238h-.767v4.19068l-2.4827-4.19068h-.8549zm5.3736 0h.766v-5.44238h-.766zm3.486 0h.759l1.923-5.44238h-.774l-1.532 4.47058-1.526-4.47058h-.773zm3.475 0h3.39v-.7153h-2.623v-1.73376h2.055v-.71529h-2.055v-1.56275h2.542v-.71528h-3.309zm7.364-2.58122c.456-.24102.759-.64532.759-1.22845 0-.97184-.634-1.63271-1.673-1.63271h-2.019v5.44238h.766v-2.1458h1.29c.442 0 .744.3421.781.8241l.103 1.3217h.744l-.103-1.3917c-.029-.5287-.273-.95628-.648-1.18952zm-2.167-2.16142h1.231c.67 0 .928.43539.928.93297 0 .48983-.258.94855-.928.94855h-1.231zm5.827 4.80484c1.105 0 1.901-.5831 1.901-1.5783 0-2.07586-2.94-1.1973-2.94-2.51903 0-.45873.375-.75416.995-.75416.633 0 1.046.36542 1.097.92521h.745c-.067-.99518-.789-1.64049-1.842-1.64049-1.039 0-1.762.59866-1.762 1.46944 0 2.00593 2.926 1.22064 2.926 2.52683 0 .5909-.472.8552-1.12.8552-.73 0-1.164-.4509-1.223-1.1506h-.745c.059 1.1273.804 1.8659 1.968 1.8659zm2.894-.0622h.766v-5.44238h-.766zm2.035 0h1.584c1.437 0 2.601-.9485 2.601-2.72118s-1.164-2.7212-2.601-2.7212h-1.584zm.766-.7153v-4.0118h.774c.957 0 1.856.56757 1.856 2.00592 0 1.43838-.899 2.00588-1.856 2.00588zm7.754.7153h.796l-2.026-5.44238h-.708l-2.026 5.44238h.788l.494-1.3839h2.188zm-2.424-2.0914.84-2.34025.84 2.34025zm3.988 2.0914h1.584c1.437 0 2.601-.9485 2.601-2.72118s-1.164-2.7212-2.601-2.7212h-1.584zm.766-.7153v-4.0118h.774c.958 0 1.857.56757 1.857 2.00592 0 1.43838-.899 2.00588-1.857 2.00588zm-55.2986 9.217h3.3896v-.7154h-2.6231v-1.7337h2.0558v-.7153h-2.0558v-1.5628h2.5421v-.7152h-3.3086zm4.4308 0h.7662v-4.1829l2.4905 4.1829h.8475v-5.4424h-.7663v4.1906l-2.4832-4.1906h-.8547zm7.2925 0h.7662v-5.4424h-.7662zm2.0344 0h.7663v-4.1829l2.4905 4.1829h.8471v-5.4424h-.7659v4.1906l-2.4833-4.1906h-.8547zm6.5449 0h.766v-4.7272h1.614v-.7152h-3.994v.7152h1.614zm3.151 0h3.39v-.7154h-2.624v-1.7337h2.056v-.7153h-2.056v-1.5628h2.542v-.7152h-3.308zm7.363-2.5813c.457-.241.759-.6453.759-1.2284 0-.9719-.633-1.6327-1.672-1.6327h-2.019v5.4424h.766v-2.1459h1.289c.443 0 .745.3421.782.8241l.103 1.3218h.744l-.103-1.3917c-.03-.5287-.273-.9563-.649-1.1896zm-2.166-2.1614h1.23c.671 0 .929.4354.929.933 0 .4898-.258.9485-.929.9485h-1.23zm4.269 4.7427h.766v-4.1829l2.491 4.1829h.847v-5.4424h-.766v4.1906l-2.483-4.1906h-.855zm5.373 0h3.39v-.7154h-2.624v-1.7337h2.056v-.7153h-2.056v-1.5628h2.542v-.7152h-3.308zm5.602 0h.767v-4.7272h1.613v-.7152h-3.994v.7152h1.614z"/></g></svg>